<svg xmlns="http://www.w3.org/2000/svg" viewBox="0 0 117.51 101.44"><defs><style>.cls-1,.cls-11,.cls-2,.cls-3,.cls-7{fill:none;}.cls-1,.cls-10,.cls-11,.cls-2,.cls-3,.cls-7,.cls-8,.cls-9{stroke:#cbcbcb;}.cls-1,.cls-11,.cls-3{stroke-linecap:round;}.cls-1,.cls-10,.cls-2,.cls-3,.cls-7,.cls-9{stroke-miterlimit:10;}.cls-1,.cls-7{stroke-width:3px;}.cls-4{fill:#f3f3f3;}.cls-10,.cls-5{fill:#e5e5e5;}.cls-5{opacity:0.5;}.cls-6{fill:#e3e3e3;}.cls-8,.cls-9{fill:#f2f2f2;}.cls-11,.cls-8{stroke-linejoin:round;}.cls-10,.cls-8,.cls-9{stroke-width:2px;}.cls-12{fill:#fff;}</style></defs><title>null</title><g id="图层_2" data-name="图层 2"><g id="图层_1-2" data-name="图层 1"><line class="cls-1" x1="109.84" y1="89.44" x2="116.01" y2="89.44"/><line class="cls-1" x1="90.87" y1="99.94" x2="95.86" y2="99.94"/><line class="cls-1" x1="100.47" y1="99.94" x2="111.97" y2="99.94"/><line class="cls-1" x1="88.22" y1="89.44" x2="105.59" y2="89.44"/><line class="cls-1" x1="74.97" y1="89.44" x2="84.34" y2="89.44"/><line class="cls-1" x1="15.09" y1="89.44" x2="69.97" y2="89.44"/><line class="cls-1" x1="44.09" y1="99.94" x2="85.91" y2="99.94"/><line class="cls-1" x1="1.68" y1="89.44" x2="9.59" y2="89.44"/><circle class="cls-2" cx="103.84" cy="2.88" r="2.38"/><line class="cls-3" x1="112.49" y1="48.06" x2="112.49" y2="49.01"/><line class="cls-3" x1="112.49" y1="51.87" x2="112.49" y2="52.82"/><line class="cls-3" x1="112.49" y1="48.06" x2="112.49" y2="49.01"/><line class="cls-3" x1="111.06" y1="50.44" x2="110.11" y2="50.44"/><line class="cls-3" x1="114.86" y1="50.44" x2="113.91" y2="50.44"/><line class="cls-3" x1="114.17" y1="48.76" x2="113.5" y2="49.43"/><line class="cls-3" x1="111.48" y1="51.45" x2="110.81" y2="52.12"/><line class="cls-3" x1="114.17" y1="48.76" x2="113.5" y2="49.43"/><line class="cls-3" x1="111.48" y1="49.43" x2="110.81" y2="48.76"/><line class="cls-3" x1="114.17" y1="52.12" x2="113.5" y2="51.45"/><line class="cls-3" x1="10.54" y1="14.94" x2="10.54" y2="15.89"/><line class="cls-3" x1="10.54" y1="18.74" x2="10.54" y2="19.69"/><line class="cls-3" x1="10.54" y1="14.94" x2="10.54" y2="15.89"/><line class="cls-3" x1="9.12" y1="17.32" x2="8.17" y2="17.32"/><line class="cls-3" x1="12.92" y1="17.32" x2="11.97" y2="17.32"/><path class="cls-4" d="M10.7,86.77a48.06,48.06,0,1,1,96.11,0c0,.38,0,.76,0,1.15h10.7c0-.39,0-.77,0-1.15A58.76,58.76,0,1,0,0,86.77c0,.38,0,.76,0,1.15h10.7C10.72,87.53,10.7,87.15,10.7,86.77Z"/><path class="cls-4" d="M58.75,38.71a48.06,48.06,0,0,0-48,48.06c0,.38,0,.76,0,1.15h96.05c0-.39,0-.77,0-1.15A48.06,48.06,0,0,0,58.75,38.71Z"/><path class="cls-5" d="M58.75,38.71a48.06,48.06,0,0,0-48,48.06c0,.38,0,.76,0,1.15h96.05c0-.39,0-.77,0-1.15A48.06,48.06,0,0,0,58.75,38.71Z"/><polygon class="cls-6" points="41.61 35.85 41.61 56.45 68.84 58.65 68.84 33.15 41.61 35.85"/><polygon class="cls-7" points="25.8 22.52 25.8 64.21 68.84 67.42 68.84 19.82 25.8 22.52"/><polygon class="cls-8" points="25.8 64.21 41.61 56.45 41.61 35.85 25.8 22.52 25.8 64.21"/><polygon class="cls-8" points="41.61 35.85 68.84 33.15 68.84 19.82 25.8 22.52 41.61 35.85"/><polygon class="cls-8" points="41.61 56.45 68.84 58.65 68.84 67.42 25.8 64.21 41.61 56.45"/><polygon class="cls-8" points="25.06 22.52 26.98 11.6 76.95 6.4 68.11 19.82 25.06 22.52"/><polygon class="cls-9" points="24.9 64.2 18.59 71.31 65.09 76.94 68.84 68.31 24.9 64.2"/><polygon class="cls-10" points="68.84 68.31 92.76 61.94 92.76 22.52 68.84 19.82 68.84 68.31"/><polyline class="cls-11" points="80.55 45.81 81.97 42.24 84.25 45.06"/><path class="cls-12" d="M75.19,39a12.75,12.75,0,0,1-1.59,2.76c-.64.58-1.64,2.7-.53,3.55a1.82,1.82,0,0,1,.16,3c-1,.84-1.27,4.07-.11,4.92s.32,12.37.52,12.47a31.36,31.36,0,0,0,5.47-1.41c.66-.41-.11-7.08-1.86-9.63S75.51,50.31,76.14,50s1.77-3.42.8-4.4c-.82-.82-1-4.39-.37-4.71S76.67,38.49,75.19,39Z"/><polyline class="cls-11" points="72.93 35.85 76.81 38.39 72.93 40.41"/><path class="cls-12" d="M87.79,39.21A12.33,12.33,0,0,0,89.38,42a2.66,2.66,0,0,1-.25,3.47,1.84,1.84,0,0,0,0,3c1,.85,1.85,4.13.69,5s-.4,8-.6,8.11a48.85,48.85,0,0,1-5,1.31c-.78-.11-.27-5.44,1.47-8s2.07-3.54,1.43-3.86-1.48-4-.68-5.16c1.56-2.19.75-6.07.12-6.38S86.31,38.68,87.79,39.21Z"/><polyline class="cls-11" points="88.68 36.3 85.56 38.34 88.68 39.96"/></g></g></svg>