<svg id="图层_1" data-name="图层 1" xmlns="http://www.w3.org/2000/svg" viewBox="0 0 200 200"><defs><style>.cls-1{fill:#fff;}.cls-2{fill:#fee265;}.cls-3{fill:#222;stroke:#222;stroke-miterlimit:10;stroke-width:3px;}</style></defs><title>notice</title><path class="cls-1" d="M38.94,117.08s21.66,15.8,59.91,15.8,61.46-15.8,61.46-15.8-18.63-16.26-24.69-33.66,4.76-24.69-10.15-39.6C114.33,32.68,109.41,33,98.82,33S66.66,43.61,66.66,53.76s3.38,19-3.6,30.68S38.94,117.08,38.94,117.08Z"/><circle class="cls-1" cx="98.82" cy="160.66" r="17.07"/><path class="cls-2" d="M37.4,117.08s23.06,15.8,61.45,15.8,61.46-15.8,61.46-15.8,8.1,11.57,3,17.92-20.82,21.15-64.5,21.15-66-20.87-66-20.87S31.05,126.67,37.4,117.08Z"/><path class="cls-3" d="M168,132.21c0-26.89-30.73-26.89-30.73-65.29a38.43,38.43,0,0,0-23.35-35.35,15.36,15.36,0,1,0-30.42-3.06,16.2,16.2,0,0,0,.3,3.06A38.44,38.44,0,0,0,60.44,66.92c0,38.4-30.73,38.4-30.73,65.29,0,11.72,19.31,21.66,46.2,25.34,0,.52-.1,1-.1,1.55a23,23,0,0,0,46.09,0c0-.53-.07-1-.11-1.55C148.68,153.87,168,143.93,168,132.21ZM98.85,20.82a7.69,7.69,0,1,1-7.68,7.69A7.68,7.68,0,0,1,98.85,20.82ZM48.59,111.34c8.7-9.1,19.53-20.43,19.53-44.42A30.78,30.78,0,0,1,87.25,38.48a15.18,15.18,0,0,0,23.2,0,30.76,30.76,0,0,1,19.13,28.44c0,24,10.83,35.32,19.54,44.42,1.66,1.74,3.2,3.35,4.57,4.94-7.36,7-29.07,12.09-54.84,12.09S51.37,123.3,44,116.31C45.37,114.71,46.92,113.09,48.59,111.34Zm50.26,63.12A15.36,15.36,0,0,1,83.49,159.1c0-.24.05-.45.06-.69,4.93.44,10,.69,15.3.69s10.38-.25,15.3-.69c0,.24.06.45.06.69A15.36,15.36,0,0,1,98.85,174.46Zm0-23c-39.76,0-61.45-12.69-61.45-19.21A20.57,20.57,0,0,1,40,121.86c10.52,8.39,32.87,14.19,58.82,14.19s48.3-5.81,58.81-14.2a20.46,20.46,0,0,1,2.65,10.36C160.31,138.73,138.61,151.42,98.85,151.42Z"/><circle class="cls-2" cx="99.52" cy="29.43" r="9.87"/></svg>