<svg id="图层_1" data-name="图层 1" xmlns="http://www.w3.org/2000/svg" viewBox="0 0 200 200"><defs><style>.cls-1{fill:#fff;}.cls-2{fill:#fee265;}.cls-3{fill:#222;}</style></defs><title>setting</title><path class="cls-1" d="M180.24,117.34a83.35,83.35,0,0,0-.58-37.53,28.75,28.75,0,0,1-23.8-40.44A82.69,82.69,0,0,0,124.4,20.92a28.77,28.77,0,0,1-50.17,0A82.68,82.68,0,0,0,44.64,37.67,28.77,28.77,0,0,1,19.23,79.93h-.29a83.22,83.22,0,0,0-.56,37.42A28.76,28.76,0,0,1,44.45,146a28.54,28.54,0,0,1-3.09,13,82.74,82.74,0,0,0,34,20.13,28.76,28.76,0,0,1,48,0,82.62,82.62,0,0,0,34-20.14,28.78,28.78,0,0,1,23-41.6Z"/><circle class="cls-2" cx="99.31" cy="98.85" r="26.24"/><path class="cls-3" d="M99.31,75A23.86,23.86,0,1,1,75.45,98.83,23.9,23.9,0,0,1,99.31,75m0-10.6a34.46,34.46,0,1,0,34.46,34.46A34.46,34.46,0,0,0,99.31,64.37m85.19,55.5a87.35,87.35,0,0,0,0-39.74,5.3,5.3,0,0,0-10.32,2.42,77.13,77.13,0,0,1,0,34.9,5.3,5.3,0,1,0,10.32,2.42Zm-6.26,4.07c.33,0,.61,0,.87,0a5.3,5.3,0,1,0,.46-10.6c-.42,0-.85,0-1.33,0a5.31,5.31,0,1,0,0,10.61Zm-17.32,31.91a20.65,20.65,0,0,1,17.32-31.91,5.31,5.31,0,0,0,0-10.61A31.27,31.27,0,0,0,152,161.64a5.3,5.3,0,0,0,8.89-5.79ZM125,183.13a86.74,86.74,0,0,0,35.13-20.56,5.3,5.3,0,0,0-7.35-7.65A76,76,0,0,1,122,173a5.3,5.3,0,0,0,3,10.16ZM81.31,180.3a20.66,20.66,0,0,1,37.39,0,5.3,5.3,0,1,0,9.6-4.51,31.27,31.27,0,0,0-56.59,0,5.3,5.3,0,1,0,9.6,4.51ZM40.09,162.79A86.78,86.78,0,0,0,75,183.13,5.31,5.31,0,0,0,78,173a76.23,76.23,0,0,1-30.63-17.85,5.3,5.3,0,1,0-7.32,7.67Zm-18-38.85A20.65,20.65,0,0,1,39.33,156a5.31,5.31,0,0,0,8.84,5.87,31.26,31.26,0,0,0-26-48.56,5.31,5.31,0,0,0,0,10.61ZM21,124c.35,0,.74,0,1.16,0a5.31,5.31,0,1,0,0-10.61c-.6,0-1.18,0-1.74,0A5.3,5.3,0,1,0,21,124ZM15.5,80.12a87.44,87.44,0,0,0,0,39.76,5.3,5.3,0,1,0,10.33-2.42,76.84,76.84,0,0,1,0-34.92A5.3,5.3,0,1,0,15.5,80.12Zm6.62-4.06c-.42,0-.81,0-1.16,0a5.3,5.3,0,1,0-.58,10.59c.56,0,1.14,0,1.74,0a5.31,5.31,0,1,0,0-10.61ZM39.33,44A20.65,20.65,0,0,1,22.12,76.06a5.31,5.31,0,0,0,0,10.61A31.26,31.26,0,0,0,48.17,38.11,5.31,5.31,0,0,0,39.33,44ZM75,16.88A86.64,86.64,0,0,0,40.09,37.21a5.3,5.3,0,1,0,7.32,7.67A76.23,76.23,0,0,1,78,27,5.3,5.3,0,1,0,75,16.88ZM118.7,19.7a20.66,20.66,0,0,1-37.39,0,5.3,5.3,0,0,0-9.6,4.51,31.27,31.27,0,0,0,56.59,0,5.3,5.3,0,0,0-9.6-4.51Zm41.45,17.73A86.61,86.61,0,0,0,125,16.88,5.3,5.3,0,0,0,122,27a76.25,76.25,0,0,1,30.83,18,5.3,5.3,0,0,0,7.35-7.65Zm18.09,38.63a20.65,20.65,0,0,1-17.32-31.91A5.3,5.3,0,0,0,152,38.36a31.27,31.27,0,0,0,26.21,48.31,5.31,5.31,0,0,0,0-10.61Zm.87,0c-.26,0-.54,0-.87,0a5.31,5.31,0,1,0,0,10.61c.48,0,.91,0,1.33,0a5.3,5.3,0,0,0-.46-10.6Z"/></svg>