<svg id="图层_1" data-name="图层 1" xmlns="http://www.w3.org/2000/svg" viewBox="0 0 200 200"><defs><style>.cls-1{fill:#fee265;}.cls-2{fill:#fff;}.cls-3{fill:#222;}.cls-4{fill:none;stroke:#222;stroke-miterlimit:10;stroke-width:7px;}</style></defs><title>voice</title><rect class="cls-1" x="15.29" y="55.16" width="29" height="84.49"/><polygon class="cls-2" points="43.51 57.52 43.51 138.39 59.9 138.39 98.88 168.18 98.88 25.37 58.11 56.1 43.51 57.52"/><path class="cls-3" d="M101.83,20.21A6.09,6.09,0,0,0,95.3,21c-.09.08-9.13,7.42-19.12,14.92C58.81,48.94,53.75,51.12,52.72,51.47H16.63a5.13,5.13,0,0,0-5.07,5.19v82.69a5.13,5.13,0,0,0,5.07,5.18H56.75c1,.37,5.79,2.63,21.2,15.46,9,7.47,17,14.76,17.1,14.83a6,6,0,0,0,6.62,1,6.3,6.3,0,0,0,3.64-5.75V25.88a6.28,6.28,0,0,0-3.48-5.67ZM95.24,160.08c-2.73-2.36-5.78-5-8.9-7.53-20.59-17-25.68-18.45-29.13-18.45l-.2,0-.2,0H26c-3.55,0-4.37-1-4.37-4.67V66c0-2.47.28-4,3.2-4h28c3.36,0,8.52-1.41,31-18.25,4-3,7.93-6,11.32-8.66v125ZM155.88,98a43.65,43.65,0,0,0-21.21-37.61,7.52,7.52,0,0,0-2.88-.91,5.16,5.16,0,0,0-5.1,5.2,5.28,5.28,0,0,0,2.53,4.55h0a33.42,33.42,0,0,1-.51,57.84h0a5.25,5.25,0,0,0-2.44,4.46,5.15,5.15,0,0,0,5.09,5.21A6.89,6.89,0,0,0,134,136a43.66,43.66,0,0,0,21.9-38ZM150,33.89a5.74,5.74,0,0,0-3-1A5.13,5.13,0,0,0,141.89,38a5.32,5.32,0,0,0,2.9,4.66,64.66,64.66,0,0,1,0,110.57,5.59,5.59,0,0,0-3,4.74,5.13,5.13,0,0,0,5.07,5.18,5.74,5.74,0,0,0,3-1A75,75,0,0,0,150,33.89Z"/><line class="cls-4" x1="43.51" y1="56.42" x2="43.51" y2="139.65"/></svg>