<svg xmlns="http://www.w3.org/2000/svg" viewBox="0 0 180.52 156.67"><defs><style>.cls-1{fill:#9cd1e9;}.cls-2{fill:#e0b700;}</style></defs><title>voice</title><g id="图层_2" data-name="图层 2"><g id="图层_1-2" data-name="图层 1"><path class="cls-1" d="M93.05.62a6.14,6.14,0,0,0-6.55.75Q77,9,67.33,16.28c-17.41,13-22.49,15.23-23.51,15.57H16.59A15.54,15.54,0,0,0,4,37.92,20.44,20.44,0,0,0,0,50.66V106a18.66,18.66,0,0,0,18.45,18.81h7.64c6.8,0-11.46-1.13,1.26,0,.9.32,26,2.43,41.74,15.47,9,7.47,17.07,14.74,17.15,14.81a6.08,6.08,0,0,0,4.11,1.59,6,6,0,0,0,2.53-.55c2.22-1,2.49-3.78,2.49-6.27V6.8C95.38,4.37,95.18,1.68,93.05.62Z"/><path class="cls-2" d="M140.93,11.36a6.14,6.14,0,0,0-8.31,2.49l-.06.12a6.34,6.34,0,0,0,2.56,8.5,63.48,63.48,0,0,1,0,111.4,6.36,6.36,0,0,0-2.56,8.51,6.2,6.2,0,0,0,5.46,3.35,6.11,6.11,0,0,0,2.91-.74,76.18,76.18,0,0,0,0-133.63Z"/><path class="cls-2" d="M141.71,101.6a45.22,45.22,0,0,0,0-46.85,43.17,43.17,0,0,0-17-15.94,6.15,6.15,0,0,0-8.32,2.78,6.34,6.34,0,0,0,2.72,8.46,32,32,0,0,1,0,56.25,6.34,6.34,0,0,0-2.72,8.46,6.15,6.15,0,0,0,8.32,2.79,43.25,43.25,0,0,0,17-16Z"/></g></g></svg>