<svg xmlns="http://www.w3.org/2000/svg" viewBox="0 0 157.74 158"><defs><style>.cls-1{fill:#94d1e8;}.cls-2{fill:#e5b800;}</style></defs><title>vote</title><g id="图层_2" data-name="图层 2"><g id="图层_1-2" data-name="图层 1"><path class="cls-1" d="M33.12,59.68H5.52A5.54,5.54,0,0,0,0,65.2v87.28a5.33,5.33,0,0,0,5.52,5.26h27.6a5.56,5.56,0,0,0,5.53-5.52V64.94A5.34,5.34,0,0,0,33.12,59.68Z"/><path class="cls-2" d="M91.49,0h-25a6.35,6.35,0,0,0-6.57,6.57V151.43A6.35,6.35,0,0,0,66.51,158h25a6.35,6.35,0,0,0,6.57-6.57V6.57A6.21,6.21,0,0,0,91.49,0Z"/><path class="cls-1" d="M151.69,33.12h-26a6.11,6.11,0,0,0-6,6.05V152a6.11,6.11,0,0,0,6,6.05h26a6.12,6.12,0,0,0,6.05-6.05v-113a5.9,5.9,0,0,0-6.05-5.79Z"/></g></g></svg>